<?xml version="1.0" standalone="no"?>
<!DOCTYPE svg PUBLIC "-//W3C//DTD SVG 20010904//EN"
 "http://www.w3.org/TR/2001/REC-SVG-20010904/DTD/svg10.dtd">
<svg version="1.0" xmlns="http://www.w3.org/2000/svg"
 width="178.000000pt" height="23.000000pt" viewBox="0 0 178.000000 23.000000"
 preserveAspectRatio="xMidYMid meet">
<metadata>
Created by potrace 1.10, written by Peter Selinger 2001-2011
</metadata>
<g transform="translate(0.000000,23.000000) scale(0.050000,-0.050000)"
fill="#6e4ccc" stroke="none">
<path d="M520 290 c-38 -15 -140 -33 -225 -41 -193 -18 -198 -40 -14 -58 78
-7 184 -27 235 -43 92 -28 141 -28 584 2 72 5 391 15 710 22 319 7 625 15 680
18 55 3 300 6 545 8 760 4 489 35 -430 50 -802 13 -1595 38 -1895 60 -74 6
-147 -1 -190 -18z"/>
</g>
</svg>
