<?xml version="1.0" standalone="no"?>
<!DOCTYPE svg PUBLIC "-//W3C//DTD SVG 20010904//EN"
 "http://www.w3.org/TR/2001/REC-SVG-20010904/DTD/svg10.dtd">
<svg version="1.0" xmlns="http://www.w3.org/2000/svg"
 width="178.000000pt" height="23.000000pt" viewBox="0 0 178.000000 23.000000"
 preserveAspectRatio="xMidYMid meet">
<metadata>
Created by potrace 1.10, written by Peter Selinger 2001-2011
</metadata>
<g transform="translate(0.000000,23.000000) scale(0.050000,-0.050000)"
fill="#6e4ccc" stroke="none">
<path d="M2798 332 c-4 -5 -318 -18 -698 -30 -379 -12 -820 -26 -980 -32 -159
-5 -459 -9 -665 -10 -236 0 -375 -7 -375 -20 0 -13 132 -20 355 -20 522 0
1912 -37 2235 -60 228 -15 295 -14 362 9 45 16 151 35 235 43 191 17 196 39
12 57 -78 7 -184 26 -235 42 -89 27 -227 39 -246 21z"/>
</g>
</svg>
