<svg width="244" height="27.000000000000004" xmlns="http://www.w3.org/2000/svg" preserveAspectRatio="xMidYMid meet">
 <metadata>Created by potrace 1.10, written by Peter Selinger 2001-2011</metadata>
 <defs>
  <linearGradient id="svg_3" x1="0" y1="0" x2="1" y2="0">
   <stop stop-color="#3D9339" offset="0"/>
   <stop stop-color="#BFFF7E" offset="1"/>
  </linearGradient>
  <linearGradient id="svg_4" x1="0" y1="0" x2="1" y2="0">
   <stop stop-color="#3d9339" offset="0"/>
   <stop stop-color="#BFFF7E" offset="1"/>
  </linearGradient>
 </defs>
 <g>
  <title>background</title>
  <rect x="-1" y="-1" width="110.44392" height="13.99994" id="canvas_background" fill="none"/>
 </g>
 <g>
  <title>Layer 1</title>
  <g transform="translate(0,27) scale(0.10000000149011612,-0.10000000149011612) " fill="#69b852" id="svg_1">
   <path d="m50,128c0,-15 4,-30 10,-33c16,-10 1331,-8 1760,3c223,6 439,11 481,11c58,1 76,4 76,15c0,23 -54,26 -503,24c-718,-3 -911,-3 -1376,3l-448,5l0,-28z" id="svg_2" stroke="url(#svg_3)" fill="url(#svg_4)"/>
  </g>
 </g>
</svg>